<svg xmlns="http://www.w3.org/2000/svg" viewBox="0 0 24 24" fill="none">
  <rect width="24" height="24" rx="4" fill="#111827"/>
  <path d="M12 2C13.5 2 15 3.5 15 5V12C15 13.5 13.5 15 12 15C10.5 15 9 13.5 9 12V5C9 3.5 10.5 2 12 2Z" fill="white"/>
  <path d="M12 15L11 18L9 20L10 22L12 21L14 22L15 20L13 18L12 15Z" fill="white" opacity="0.9"/>
  <path d="M7 9L9 10V14L7 15V9Z" fill="white" opacity="0.8"/>
  <path d="M17 9L15 10V14L17 15V9Z" fill="white" opacity="0.8"/>
  <circle cx="12" cy="8" r="1.5" fill="rgba(255,255,255,0.3)"/>
</svg>
